<svg width="24" height="24" viewBox="0 0 24 24" fill="none" xmlns="http://www.w3.org/2000/svg">
<path d="M12 20.1875C12.3061 20.4814 12.6411 20.7447 13 20.9746V23C12.9999 23.5522 12.5522 24 12 24C11.4478 24 11.0001 23.5522 11 23V20.9746C11.3589 20.7447 11.6939 20.4814 12 20.1875Z" fill="#328400"/>
<path d="M7.5 8C8.8843 8 10.1664 8.4343 11.2207 9.17188C9.8491 10.531 9 12.4165 9 14.5C9 16.5832 9.84939 18.4681 11.2207 19.8271C10.1664 20.5649 8.8845 21 7.5 21C3.91015 21 1 18.0899 1 14.5C1 10.9101 3.91015 8 7.5 8Z" fill="#7FCE00"/>
<path d="M19.4062 8.68555C21.5368 9.75255 23 11.955 23 14.5C23 18.0899 20.0899 21 16.5 21C12.987 21 10.1268 18.213 10.0059 14.7295C10.641 14.9043 11.3093 15 12 15C15.7387 15 18.8379 12.2643 19.4062 8.68555Z" fill="#7DA7FF"/>
<path d="M12.9463 10.9541C13.4743 11.7634 13.8261 12.697 13.9492 13.7021C13.8262 12.6972 13.4738 11.7633 12.9463 10.9541ZM12 1C15.5899 1 18.5 3.91015 18.5 7.5C18.5 10.0451 17.0369 12.2476 14.9062 13.3145C14.3379 9.7357 11.2387 7 7.5 7C6.80938 7 6.14095 7.09477 5.50586 7.26953C5.62727 3.78645 8.48731 1 12 1ZM12.4453 10.2842C12.4973 10.3451 12.5479 10.4069 12.5977 10.4697C12.548 10.4069 12.4972 10.3451 12.4453 10.2842ZM12.2471 10.0615C12.2987 10.1168 12.3487 10.1735 12.3984 10.2305C12.3487 10.1735 12.2987 10.1168 12.2471 10.0615ZM12.0439 9.85352C12.0971 9.90552 12.1488 9.95891 12.2002 10.0127C12.1489 9.9589 12.0971 9.90553 12.0439 9.85352ZM11.6035 9.45898C11.413 9.30363 11.2124 9.16062 11.0049 9.02734C11.2125 9.16057 11.413 9.30369 11.6035 9.45898ZM10.7598 8.87695C10.8003 8.9005 10.8409 8.92385 10.8809 8.94824C10.8409 8.92384 10.8003 8.90051 10.7598 8.87695ZM10.4209 8.69336C10.4915 8.72892 10.5618 8.7647 10.6309 8.80273C10.5618 8.76468 10.4915 8.72894 10.4209 8.69336ZM10.1582 8.56836C10.2325 8.60169 10.3062 8.63587 10.3789 8.67188C10.3062 8.63586 10.2325 8.6017 10.1582 8.56836ZM9.91113 8.46387C9.97439 8.48916 10.0374 8.51479 10.0996 8.54199C10.0374 8.51478 9.97438 8.48917 9.91113 8.46387ZM9.64453 8.36328C9.70023 8.38274 9.75556 8.40291 9.81055 8.42383C9.75556 8.4029 9.70022 8.38275 9.64453 8.36328ZM9.35938 8.27051C9.41047 8.28573 9.46116 8.30192 9.51172 8.31836C9.46117 8.30191 9.41046 8.28574 9.35938 8.27051ZM9.0752 8.19336C9.11509 8.20329 9.15473 8.21394 9.19434 8.22461C9.15473 8.21394 9.11509 8.2033 9.0752 8.19336ZM8.75684 8.12207C8.80624 8.13175 8.8553 8.14253 8.9043 8.15332C8.8553 8.14252 8.80624 8.13175 8.75684 8.12207ZM6.15918 8.13867C6.17548 8.13525 6.19166 8.13123 6.20801 8.12793C6.19166 8.13122 6.17548 8.13526 6.15918 8.13867ZM8.45312 8.07031C8.49923 8.07709 8.54504 8.08504 8.59082 8.09277C8.54504 8.08503 8.49923 8.07709 8.45312 8.07031ZM8.14062 8.03125C8.18705 8.03579 8.23316 8.04234 8.2793 8.04785C8.23316 8.04234 8.18706 8.03579 8.14062 8.03125ZM6.79199 8.03809C6.82964 8.03401 6.86743 8.03078 6.90527 8.02734C6.86743 8.03076 6.82964 8.03403 6.79199 8.03809ZM7.11133 8.0127C7.13767 8.01114 7.16401 8.00905 7.19043 8.00781C7.164 8.00904 7.13767 8.01115 7.11133 8.0127ZM12.623 10.502C12.6753 10.5688 12.7257 10.6371 12.7754 10.7061C12.7258 10.6371 12.6753 10.5688 12.623 10.502ZM12.8076 10.752C12.8548 10.8186 12.9016 10.8856 12.9463 10.9541C12.9016 10.8856 12.8548 10.8186 12.8076 10.752ZM11.8291 9.65332C11.8922 9.70968 11.9538 9.76743 12.0146 9.82617C11.9539 9.76741 11.8921 9.70969 11.8291 9.65332ZM11.6035 9.45898C11.6656 9.50962 11.7259 9.56238 11.7861 9.61523C11.726 9.56236 11.6656 9.50964 11.6035 9.45898Z" fill="#BCB28D"/>
</svg>
