<svg width="24" height="24" viewBox="0 0 24 24" fill="none" xmlns="http://www.w3.org/2000/svg">
<g clip-path="url(#clip0_657_1049)">
<path d="M12 18C12 21.3137 9.31371 24 6 24C2.68629 24 0 21.3137 0 18C0 14.6863 2.68629 12 6 12C9.31371 12 12 14.6863 12 18Z" fill="url(#paint0_linear_657_1049)"/>
<path d="M24 6C24 9.31371 21.3137 12 18 12C14.6863 12 12 9.31371 12 6C12 2.68629 14.6863 0 18 0C21.3137 0 24 2.68629 24 6Z" fill="url(#paint1_linear_657_1049)"/>
<path d="M24 18C24 21.3137 21.3137 24 18 24C14.6863 24 12 21.3137 12 18C12 14.6863 14.6863 12 18 12C21.3137 12 24 14.6863 24 18Z" fill="url(#paint2_linear_657_1049)"/>
<path d="M12 6C12 9.31371 9.31371 12 6 12C2.68629 12 0 9.31371 0 6C0 2.68629 2.68629 0 6 0C9.31371 0 12 2.68629 12 6Z" fill="url(#paint3_linear_657_1049)"/>
<path d="M14 6L12.126 7.2334C12.1176 7.16969 12.066 7.12012 12 7.12012C11.934 7.12018 11.8814 7.16965 11.873 7.2334L10 6L11.873 4.76562C11.8808 4.82996 11.9336 4.87982 12 4.87988C12.0664 4.87988 12.1181 4.82992 12.126 4.76562L14 6Z" fill="url(#paint4_linear_657_1049)"/>
<path d="M14 18L12.126 19.2334C12.1176 19.1697 12.066 19.1201 12 19.1201C11.934 19.1202 11.8814 19.1697 11.873 19.2334L10 18L11.873 16.7656C11.8808 16.83 11.9336 16.8798 12 16.8799C12.0664 16.8799 12.1181 16.8299 12.126 16.7656L14 18Z" fill="url(#paint5_linear_657_1049)"/>
<path d="M17.9995 13.9995L16.7661 12.1255C16.8298 12.1171 16.8794 12.0655 16.8794 11.9995C16.8793 11.9335 16.8299 11.8809 16.7661 11.8726L17.9995 9.99951L19.2339 11.8726C19.1696 11.8803 19.1197 11.9331 19.1196 11.9995C19.1196 12.0659 19.1696 12.1176 19.2339 12.1255L17.9995 13.9995Z" fill="url(#paint6_linear_657_1049)"/>
<path d="M5.99951 13.9995L4.76611 12.1255C4.82982 12.1171 4.87939 12.0655 4.87939 11.9995C4.87934 11.9335 4.82986 11.8809 4.76611 11.8726L5.99951 9.99951L7.23389 11.8726C7.16955 11.8803 7.11969 11.9331 7.11963 11.9995C7.11963 12.0659 7.16959 12.1176 7.23389 12.1255L5.99951 13.9995Z" fill="url(#paint7_linear_657_1049)"/>
</g>
<defs>
<linearGradient id="paint0_linear_657_1049" x1="24" y1="0" x2="0" y2="24" gradientUnits="userSpaceOnUse">
<stop stop-color="#83D500"/>
<stop offset="1" stop-color="#017D00"/>
</linearGradient>
<linearGradient id="paint1_linear_657_1049" x1="24" y1="0" x2="0" y2="24" gradientUnits="userSpaceOnUse">
<stop stop-color="#83D500"/>
<stop offset="1" stop-color="#017D00"/>
</linearGradient>
<linearGradient id="paint2_linear_657_1049" x1="24" y1="0" x2="0" y2="24" gradientUnits="userSpaceOnUse">
<stop stop-color="#83D500"/>
<stop offset="1" stop-color="#017D00"/>
</linearGradient>
<linearGradient id="paint3_linear_657_1049" x1="24" y1="0" x2="0" y2="24" gradientUnits="userSpaceOnUse">
<stop stop-color="#83D500"/>
<stop offset="1" stop-color="#017D00"/>
</linearGradient>
<linearGradient id="paint4_linear_657_1049" x1="24" y1="0" x2="0" y2="24" gradientUnits="userSpaceOnUse">
<stop stop-color="#83D500"/>
<stop offset="1" stop-color="#017D00"/>
</linearGradient>
<linearGradient id="paint5_linear_657_1049" x1="24" y1="0" x2="0" y2="24" gradientUnits="userSpaceOnUse">
<stop stop-color="#83D500"/>
<stop offset="1" stop-color="#017D00"/>
</linearGradient>
<linearGradient id="paint6_linear_657_1049" x1="24" y1="0" x2="0" y2="24" gradientUnits="userSpaceOnUse">
<stop stop-color="#83D500"/>
<stop offset="1" stop-color="#017D00"/>
</linearGradient>
<linearGradient id="paint7_linear_657_1049" x1="24" y1="0" x2="0" y2="24" gradientUnits="userSpaceOnUse">
<stop stop-color="#83D500"/>
<stop offset="1" stop-color="#017D00"/>
</linearGradient>
<clipPath id="clip0_657_1049">
<rect width="24" height="24" fill="white"/>
</clipPath>
</defs>
</svg>
